<?xml version="1.0" encoding="UTF-8"?>
<!DOCTYPE svg PUBLIC "-//W3C//DTD SVG 1.1//EN" "http://www.w3.org/Graphics/SVG/1.1/DTD/svg11.dtd">
<!-- Creator: CorelDRAW -->
<svg xmlns="http://www.w3.org/2000/svg" xml:space="preserve" width="8.26772in" height="11.6929in" version="1.1" style="shape-rendering:geometricPrecision; text-rendering:geometricPrecision; image-rendering:optimizeQuality; fill-rule:evenodd; clip-rule:evenodd"
viewBox="0 0 8267.72 11692.91"
 xmlns:xlink="http://www.w3.org/1999/xlink"
 xmlns:xodm="http://www.corel.com/coreldraw/odm/2003">
 <defs>
  <style type="text/css">
   <![CDATA[
    .fil0 {fill:#051D40;fill-rule:nonzero}
    .fil1 {fill:#145DA0;fill-rule:nonzero}
    .fil2 {fill:black;fill-rule:nonzero;fill-opacity:0.000000}
   ]]>
  </style>
 </defs>
 <g id="Layer_x0020_1">
  <metadata id="CorelCorpID_0Corel-Layer"/>
  <g id="_2896614435040">
   <path class="fil0" d="M6590.7 6625.45c-8.09,228.44 -54.36,455.48 -136.8,668.33 -96.73,250.82 -242.83,481.96 -426.9,677.02 -183.87,195.26 -405.81,354.35 -649.94,464.97 -243.93,110.92 -509.64,172.68 -776.85,182.17 -267.31,9.89 -536.32,-32.57 -786.84,-125.21 -250.72,-92.23 -482.66,-234.04 -679.22,-414.2 -196.76,-179.98 -358.05,-398.32 -471.37,-639.35 -113.72,-240.83 -178.67,-504.15 -191.96,-769.46 -13.89,-265.51 24.28,-533.52 112.72,-783.84 88.04,-250.43 225.64,-482.96 401.92,-680.92 176.07,-198.06 390.82,-361.44 628.65,-477.67 237.73,-116.42 498.25,-184.87 761.86,-202.16 263.61,-17.89 530.62,16.19 780.75,100.43 250.22,83.94 483.36,217.45 682.62,389.83 199.36,172.18 364.84,383.33 483.76,617.96 119.22,234.54 191.17,492.55 212.35,754.37 -23.28,-261.71 -97.23,-518.63 -217.85,-751.57 -120.42,-233.04 -286.8,-441.79 -486.36,-611.37 -199.36,-169.78 -431.8,-300.39 -680.32,-381.63 -248.53,-81.54 -512.84,-113.02 -773.15,-93.33 -260.41,19.09 -516.83,88.74 -749.97,205.26 -233.33,116.22 -443.19,278.6 -614.47,474.46 -171.58,195.66 -304.69,424.8 -388.93,670.53 -84.64,245.72 -119.81,507.84 -104.22,766.85 15.09,259.02 80.44,514.94 192.86,748.37 112.12,233.53 270.51,444.39 462.78,617.46 192.06,173.28 417.8,308.78 660.83,396.02 242.93,87.64 502.85,126.51 760.46,114.92 257.72,-11.09 512.94,-72.65 746.47,-181.07 233.64,-108.13 445.39,-262.52 620.17,-450.98 174.98,-188.37 312.88,-410.71 403.41,-650.84 76.85,-203.06 119.12,-418.7 125.41,-635.35 -41.97,-18.19 -72.25,-58.96 -74.75,-107.62 -3.4,-68.45 49.17,-126.71 117.62,-130.11 64.23,-3.29 119.55,43.03 128.8,105.35l0 36.95c-6.39,42.72 -34.69,78.7 -73.54,95.43z"/>
   <path class="fil1" d="M6132.52 6541.31c1.3,208.95 -38.37,418 -116.62,611.37 -77.94,193.57 -194.06,371.24 -339.16,520.54 -145,149.39 -319.07,270.31 -509.54,353.35 -190.46,83.34 -397.12,128.31 -604.37,133.2 -207.25,5.3 -415.5,-30.08 -608.87,-104.13 -193.46,-73.85 -371.94,-185.87 -522.63,-327.17 -150.89,-141.2 -274,-311.68 -359.94,-499.15 -86.24,-187.37 -134.8,-391.52 -143.6,-597.18 10.89,205.56 61.46,408.81 149.19,594.58 87.54,185.87 211.65,354.15 362.75,492.75 150.99,138.7 328.87,247.82 520.73,318.78 191.86,71.35 397.62,104.02 601.67,96.83 204.16,-6.8 406.71,-53.17 592.58,-136.7 185.97,-83.34 355.15,-203.46 495.35,-350.85 140.3,-147.3 251.72,-321.77 325.77,-510.84 74.25,-188.96 110.52,-392.22 107.32,-594.88 -2.9,-202.65 -44.97,-404.51 -124.41,-590.58 -79.34,-186.07 -195.36,-356.05 -339.16,-497.85 -143.6,-141.9 -314.68,-255.62 -500.85,-332.47 -186.17,-77.04 -387.13,-117.41 -588.28,-117.41 -201.15,-0.4 -402.01,37.67 -588.08,112.92 -186.07,75.05 -356.55,187.47 -499.85,327.37 -143.3,139.8 -259.22,307.38 -339.06,490.65 -64.16,146.8 -104.93,303.69 -120.62,462.97 40.37,20.29 68.15,61.96 68.35,110.22 0.3,68.45 -54.96,124.21 -123.41,124.51 -68.45,0.3 -124.21,-54.96 -124.51,-123.41 -0.2,-53.96 34.07,-100.13 82.24,-117.22 17.99,-170.58 63.06,-338.26 133.21,-494.55 86.64,-193.36 211.05,-369.24 363.74,-515.34 152.69,-146.09 333.57,-262.81 530.23,-339.66 196.46,-77.35 407.91,-115.12 618.36,-112.52 210.65,2.1 420.5,46.47 613.97,128.81 193.56,82.24 370.44,202.46 518.24,351.45 147.89,148.8 266.51,326.47 346.65,520.03 80.44,193.46 121.71,402.62 122.61,611.57l0 0z"/>
   <path class="fil0" d="M3991.29 6774.19c-96.63,0 -176.01,-10.88 -238.13,-32.65 -62.12,-21.77 -110.97,-50.7 -146.54,-86.81 -35.57,-36.1 -59.99,-77.52 -73.27,-124.24 -13.27,-46.72 -19.91,-95.04 -19.91,-144.94l0 -210.26c0,-13.8 1.86,-25.75 5.57,-35.83 3.72,-10.09 8.76,-17.79 15.13,-23.1l207.07 -173.62c5.31,-4.25 12.21,-7.7 20.7,-10.35 8.5,-2.66 18.59,-3.98 30.26,-3.98l230.96 0c11.68,0 22.04,1.32 31.06,3.98 9.03,2.65 16.72,6.64 23.1,11.94l0 -299.46c0,-13.8 1.85,-25.48 5.57,-35.04 3.72,-9.56 9.3,-17.52 16.73,-23.89l205.47 -173.62c5.31,-4.25 12.48,-7.7 21.5,-10.35 9.03,-2.65 18.85,-3.98 29.47,-3.98l250.07 0c25.49,0 44.07,5.84 55.75,17.52 11.68,11.68 17.52,30.26 17.52,55.75l0 788.46c0,49.91 -7.17,95.84 -21.5,137.78 -14.34,41.94 -39.56,77.78 -75.66,107.51l-205.47 173.62c-36.11,29.73 -84.95,53.09 -146.54,70.08 -61.59,16.99 -141.23,25.49 -238.93,25.49zm672.17 -514.48l0 -788.46c0,-20.17 -4.51,-34.77 -13.54,-43.8 -9.02,-9.03 -23.63,-13.54 -43.8,-13.54l-250.07 0c-20.18,0 -34.78,4.52 -43.81,13.54 -9.02,9.03 -13.54,23.63 -13.54,43.8l0 724.74c0,21.24 -6.11,39.02 -18.32,53.36 -12.21,14.34 -41.15,21.5 -86.81,21.5 -48.85,0 -79.91,-7.17 -93.18,-21.5 -13.27,-14.33 -19.91,-32.12 -19.91,-53.36l0 -194.33c0,-20.17 -4.51,-34.78 -13.54,-43.8 -9.03,-9.03 -23.63,-13.54 -43.8,-13.54l-230.96 0c-20.17,0 -34.77,4.51 -43.8,13.54 -9.03,9.03 -13.54,23.63 -13.54,43.8l0 258.04c0,48.85 6.64,93.18 19.91,133 13.28,39.82 37.17,73.8 71.68,101.94 34.52,28.14 81.77,50.17 141.77,66.1 60,15.93 136.19,23.89 228.57,23.89 93.44,0 170.43,-7.96 230.96,-23.89 60.53,-15.93 108.05,-37.96 142.56,-66.1 34.51,-28.14 58.67,-62.12 72.48,-101.94 13.8,-39.82 20.7,-84.16 20.7,-133zm-191.13 -702.44l15.93 0 0 664.21c0,62.65 -19.91,114.16 -59.73,154.51 -39.82,40.35 -116.02,60.52 -228.57,60.52 -59.46,0 -108.57,-5.31 -147.33,-15.93 -38.76,-10.62 -69.29,-25.22 -91.59,-43.8 -22.3,-18.58 -37.96,-41.15 -46.99,-67.7 -9.02,-26.54 -13.54,-55.75 -13.54,-87.61l0 -125.83 15.93 0 0 125.83c0,60.53 19.91,108.85 59.73,144.95 39.82,36.11 114.42,54.16 223.8,54.16 105.13,0 176.81,-18.32 215.04,-54.95 38.23,-36.64 57.34,-84.69 57.34,-144.15l0 -664.21z"/>
   <path class="fil1" d="M4794.62 7325.15l-246.89 0c-25.49,0 -44.07,-5.84 -55.74,-17.52 -11.68,-11.68 -17.52,-30.27 -17.52,-55.75l0 -1032.16c0,-13.8 1.86,-25.48 5.57,-35.04 3.72,-9.56 9.29,-17.52 16.72,-23.89l205.48 -173.62c5.31,-4.25 12.47,-7.7 21.5,-10.35 9.03,-2.65 18.85,-3.98 29.47,-3.98l487.41 0c75.39,0 138.57,7.96 189.54,23.89 50.98,15.93 91.33,38.22 121.06,66.9 29.73,28.67 50.71,63.19 62.92,103.54 12.21,40.35 18.32,84.42 18.32,132.2l0 203.89c0,50.96 -7.17,97.42 -21.5,139.37 -14.33,41.94 -39.03,77.78 -74.07,107.52l-207.07 172.03c-26.55,22.3 -60.8,40.62 -102.74,54.95 -41.94,14.34 -93.18,22.57 -153.71,24.69l0 76.46c0,13.81 -1.86,25.48 -5.58,35.04 -3.72,9.56 -9.29,17.52 -16.72,23.89l-207.07 172.03c-4.25,4.25 -10.89,7.96 -19.91,11.15 -9.02,3.19 -18.85,4.78 -29.46,4.78zm205.48 -189.55c20.17,0 34.78,-4.51 43.8,-13.54 9.03,-9.03 13.54,-23.63 13.54,-43.8l0 -264.41 183.18 0c144.42,0 243.17,-28.67 296.27,-86.01 53.09,-57.34 79.64,-132.2 79.64,-224.58l0 -203.89c0,-92.39 -26.55,-167.25 -79.64,-224.59 -53.1,-57.34 -151.85,-86.02 -296.27,-86.02l-487.41 0c-20.18,0 -34.78,4.52 -43.81,13.54 -9.02,9.03 -13.54,23.63 -13.54,43.8l0 1032.16c0,20.17 4.51,34.78 13.54,43.8 9.03,9.03 23.63,13.54 43.81,13.54l246.89 0zm218.22 -457.15l-328.13 0 0 313.79 -15.93 0 0 -860.13 344.06 0c49.91,0 90.52,5.57 121.85,16.72 31.33,11.15 55.48,26.28 72.48,45.39 16.99,19.11 28.67,41.94 35.04,68.5 6.37,26.55 9.56,55.22 9.56,86.01l0 117.87c0,30.8 -3.19,59.2 -9.56,85.21 -6.37,26.02 -18.05,48.32 -35.04,66.9 -16.99,18.58 -41.15,33.18 -72.48,43.8 -31.33,10.62 -71.94,15.93 -121.85,15.93zm-328.13 -15.93l328.13 0c46.72,0 84.69,-4.78 113.89,-14.33 29.2,-9.56 51.77,-23.09 67.7,-40.61 15.93,-17.52 26.81,-38.23 32.65,-62.13 5.84,-23.89 8.76,-50.17 8.76,-78.84l0 -117.87c0,-28.67 -2.92,-55.22 -8.76,-79.64 -5.84,-24.43 -16.72,-45.66 -32.65,-63.71 -15.93,-18.05 -38.49,-32.12 -67.7,-42.21 -29.2,-10.09 -67.16,-15.13 -113.89,-15.13l-328.13 0 0 514.48zm164.06 -375.91l143.35 0c30.8,0 50.97,7.96 60.53,23.89 9.56,15.93 14.34,33.98 14.34,54.16l0 84.42c0,20.18 -4.78,38.23 -14.34,54.16 -9.56,15.93 -29.73,23.89 -60.53,23.89l-143.35 0 0 -240.52z"/>
   <path class="fil1" d="M3274.64 6949c-39.85,0 -72.17,32.31 -72.17,72.16 0,39.85 32.31,72.17 72.17,72.17 39.85,0 72.17,-32.31 72.17,-72.17 0,-39.85 -32.31,-72.16 -72.17,-72.16z"/>
   <path class="fil0" d="M3308.74 7122.38c-4.48,1.57 -8.97,2.23 -13.47,1.98 -4.51,-0.26 -8.68,-1.3 -12.52,-3.15 -3.98,-1.91 -7.49,-4.55 -10.5,-7.9 -3.02,-3.36 -5.31,-7.27 -6.89,-11.75l-34.7 -98.76c-1.61,-4.59 -2.28,-9.11 -2,-13.56 0.28,-4.45 1.33,-8.59 3.18,-12.43 1.84,-3.84 4.44,-7.27 7.8,-10.29 3.35,-3.02 7.33,-5.33 11.91,-6.94l148.22 -52.07c1.71,-0.72 3.41,-1.54 5.12,-2.44 1.71,-0.9 3.41,-1.9 5.11,-2.99 1.7,-1.09 3.36,-2.04 4.98,-2.85 1.61,-0.81 3.24,-1.51 4.88,-2.08 1.96,-0.69 3.91,-1 5.83,-0.94 1.93,0.06 3.68,0.61 5.28,1.65 1.74,1.11 3.35,2.83 4.85,5.19 1.5,2.36 2.98,5.61 4.44,9.76l38.67 110.06c1.8,5.13 2.52,10.03 2.13,14.7 -0.38,4.67 -1.66,8.98 -3.83,12.94 -2.06,3.91 -4.82,7.3 -8.29,10.18 -3.47,2.88 -7.22,5.03 -11.26,6.44 -3.93,1.38 -8.06,2.03 -12.38,1.96 -4.32,-0.07 -8.46,-1.02 -12.4,-2.82 -3.91,-1.69 -7.48,-4.28 -10.72,-7.74 -3.24,-3.46 -5.78,-7.81 -7.62,-13.05l-22.32 -63.54 -11.47 4.03 16.28 46.35c1.69,4.81 2.35,9.39 1.98,13.75 -0.37,4.36 -1.52,8.35 -3.43,11.97 -4.02,7.43 -10.12,12.57 -18.31,15.45 -4.26,1.5 -8.51,2.13 -12.76,1.91 -4.25,-0.22 -8.22,-1.22 -11.91,-2.99 -3.69,-1.77 -6.98,-4.23 -9.87,-7.39 -2.89,-3.16 -5.1,-6.92 -6.63,-11.29l-16.28 -46.35 -13.76 4.83 23.47 66.82c1.57,4.48 2.23,8.96 1.97,13.47 -0.26,4.51 -1.28,8.73 -3.09,12.68 -1.84,3.84 -4.44,7.26 -7.8,10.28 -3.35,3.02 -7.32,5.33 -11.91,6.94zm-9.54 -26.64c2.19,-0.77 3.28,-2.01 3.29,-3.73 0.01,-1.72 -0.31,-3.51 -0.96,-5.37l-32.28 -91.88 66.66 -23.42 24.91 70.91c0.54,1.53 1.43,2.69 2.69,3.47 1.26,0.78 2.65,0.91 4.18,0.37 1.96,-0.69 3.06,-1.76 3.3,-3.19 0.24,-1.43 0.09,-2.91 -0.45,-4.44l-24.8 -70.59 64.2 -22.56 31.59 89.92c0.65,1.85 1.67,3.09 3.05,3.71 1.39,0.62 2.67,0.72 3.88,0.3 1.2,-0.42 2.15,-1.3 2.83,-2.65 0.69,-1.35 0.68,-3.06 -0.06,-5.13l-34.06 -96.96c-0.42,-1.2 -0.93,-1.94 -1.52,-2.23 -0.59,-0.28 -1.16,-0.33 -1.7,-0.13 -0.44,0.15 -0.81,0.31 -1.12,0.48 -0.31,0.17 -0.66,0.39 -1.06,0.65 -0.4,0.26 -0.78,0.49 -1.15,0.68 -0.36,0.19 -0.65,0.33 -0.87,0.4l-144.3 50.69c-3.17,1.11 -5.33,2.54 -6.5,4.3 -1.16,1.76 -1.13,4.39 0.1,7.88l32.8 93.35c0.61,1.75 1.52,3.21 2.73,4.38 1.21,1.17 2.74,1.43 4.6,0.78z"/>
   <path class="fil0" d="M3321.28 7152.36l145.62 -71.3c4.16,-2.04 8.49,-3.19 13,-3.46 4.5,-0.28 8.8,0.33 12.87,1.81 4.03,1.38 7.76,3.54 11.2,6.5 3.45,2.95 6.21,6.56 8.3,10.82 2.04,4.16 3.16,8.5 3.38,13.03 0.22,4.53 -0.33,8.86 -1.66,12.99 -1.38,4.02 -3.54,7.76 -6.5,11.2 -2.96,3.44 -6.51,6.18 -10.67,8.22l-145.62 71.3c-4.26,2.09 -8.66,3.24 -13.19,3.46 -4.53,0.22 -8.81,-0.36 -12.83,-1.74 -4.18,-1.43 -7.96,-3.64 -11.35,-6.62 -3.39,-2.98 -6.11,-6.54 -8.14,-10.7 -2.09,-4.26 -3.26,-8.65 -3.54,-13.15 -0.28,-4.5 0.33,-8.8 1.81,-12.87 1.33,-4.13 3.48,-7.89 6.46,-11.28 2.98,-3.39 6.6,-6.13 10.86,-8.22zm158.29 -45.42l-145.3 71.15c-1.25,0.61 -2.14,1.56 -2.67,2.85 -0.53,1.29 -0.43,2.66 0.28,4.12 0.61,1.25 1.61,2.11 3,2.59 1.39,0.48 2.71,0.41 3.96,-0.2l145.3 -71.15c1.35,-0.66 2.24,-1.67 2.67,-3.04 0.42,-1.37 0.33,-2.68 -0.28,-3.93 -0.71,-1.46 -1.72,-2.38 -3,-2.78 -1.29,-0.4 -2.61,-0.26 -3.96,0.4z"/>
   <path class="fil0" d="M3513.03 7220.37c0.15,3.67 -0.18,7.09 -0.99,10.26 -1.06,4.13 -2.93,8.02 -5.61,11.68 -2.67,3.67 -6,6.67 -9.98,9.03l-92.37 54.58c-4.08,2.41 -8.38,3.91 -12.87,4.48 -4.5,0.58 -8.81,0.33 -12.93,-0.73 -4.28,-1.1 -8.22,-3 -11.84,-5.71 -3.61,-2.7 -6.6,-6.04 -8.96,-10.03 -2.41,-4.08 -3.93,-8.36 -4.56,-12.83 -0.63,-4.47 -0.36,-8.8 0.8,-12.98 1.06,-4.12 2.94,-7.98 5.65,-11.6 2.7,-3.61 6.1,-6.63 10.18,-9.04l92.37 -54.58c3.98,-2.35 8.21,-3.84 12.68,-4.47 4.47,-0.62 8.76,-0.41 12.89,0.65 3.48,0.9 6.64,2.26 9.46,4.09 -0.31,-3.72 0.04,-7.22 1.06,-10.5 1,-4.22 2.81,-8.15 5.44,-11.78 2.63,-3.64 6.03,-6.69 10.22,-9.17 4.08,-2.41 8.35,-3.89 12.8,-4.44 4.44,-0.55 8.76,-0.24 12.94,0.92 4.12,1.06 8,2.96 11.64,5.72 3.65,2.76 6.7,6.22 9.18,10.41 2.41,4.08 3.94,8.39 4.6,12.91 0.65,4.52 0.48,8.89 -0.52,13.11 -1,4.22 -2.81,8.15 -5.44,11.78 -2.63,3.63 -5.98,6.65 -10.07,9.07 -4.19,2.47 -8.5,3.98 -12.95,4.53 -4.45,0.54 -8.76,0.24 -12.94,-0.92 -3.49,-0.9 -6.78,-2.37 -9.89,-4.44zm24.04 -32.35c-1,-1.69 -2.39,-2.72 -4.15,-3.09 -1.76,-0.37 -3.49,-0.06 -5.19,0.94 -1.69,1 -2.78,2.35 -3.26,4.04 -0.48,1.7 -0.22,3.39 0.78,5.08 1,1.7 2.37,2.77 4.11,3.21 1.74,0.45 3.46,0.17 5.16,-0.83 1.69,-1 2.79,-2.39 3.29,-4.16 0.5,-1.77 0.25,-3.5 -0.75,-5.2zm-55.19 38.66c1.19,-0.7 1.98,-1.77 2.34,-3.2 0.37,-1.43 0.2,-2.74 -0.51,-3.93 -0.83,-1.4 -1.92,-2.22 -3.29,-2.5 -1.37,-0.27 -2.65,-0.04 -3.84,0.66l-92.06 54.4c-1.3,0.77 -2.13,1.8 -2.51,3.09 -0.37,1.3 -0.15,2.65 0.68,4.04 0.71,1.2 1.74,1.99 3.12,2.39 1.38,0.4 2.71,0.21 4.01,-0.56l92.06 -54.4z"/>
   <path class="fil0" d="M3438.62 7358.36l59.2 -43.16 -1.84 -2.52c-2.8,-3.83 -4.65,-7.85 -5.57,-12.05 -0.91,-4.2 -1.04,-8.41 -0.38,-12.61 0.72,-4.11 2.19,-8.04 4.39,-11.8 2.2,-3.76 5.13,-6.96 8.78,-9.62 3.74,-2.72 7.76,-4.58 12.05,-5.57 4.3,-0.98 8.51,-1.19 12.65,-0.62 4.21,0.65 8.15,2.08 11.82,4.27 3.68,2.19 6.91,5.2 9.7,9.04l1.84 2.52 18.37 -13.39c3.74,-2.73 7.81,-4.61 12.19,-5.67 4.39,-1.05 8.69,-1.25 12.89,-0.59 4.21,0.66 8.24,2.12 12.11,4.39 3.87,2.26 7.24,5.36 10.1,9.28 2.73,3.74 4.59,7.82 5.6,12.25 1,4.42 1.18,8.74 0.52,12.94 -0.66,4.2 -2.14,8.26 -4.45,12.16 -2.31,3.91 -5.33,7.22 -9.07,9.95l-18.37 13.39 2.25 3.09c5.46,7.48 7.48,15.67 6.09,24.57 -0.66,4.2 -2.11,8.2 -4.36,11.98 -2.25,3.79 -5.25,7.05 -8.99,9.78 -3.65,2.66 -7.59,4.46 -11.84,5.41 -4.25,0.95 -8.48,1.09 -12.68,0.44 -4.2,-0.66 -8.19,-2.09 -11.94,-4.29 -3.75,-2.21 -6.99,-5.18 -9.72,-8.92l-2.25 -3.09 -59.2 43.16c-3.83,2.8 -7.96,4.69 -12.39,5.7 -4.42,1.01 -8.74,1.18 -12.94,0.52 -4.29,-0.59 -8.37,-2.06 -12.23,-4.41 -3.86,-2.35 -7.15,-5.38 -9.88,-9.13 -2.86,-3.93 -4.8,-8.06 -5.82,-12.41 -1.02,-4.34 -1.15,-8.65 -0.4,-12.92 0.66,-4.2 2.16,-8.24 4.5,-12.09 2.35,-3.85 5.43,-7.18 9.27,-9.98zm80.45 -61.44l18.1 24.82 -81.49 59.42c-1.13,0.82 -1.83,1.91 -2.13,3.28 -0.3,1.36 0.03,2.69 0.99,4 0.82,1.12 1.96,1.8 3.41,2.03 1.46,0.23 2.74,-0.07 3.87,-0.89l81.5 -59.41 18.92 25.95c0.89,1.21 2.04,1.91 3.46,2.09 1.42,0.18 2.69,-0.14 3.81,-0.96 1.31,-0.95 2.05,-2.1 2.22,-3.44 0.17,-1.34 -0.19,-2.62 -1.07,-3.83l-18.92 -25.95 40.82 -29.76c1.22,-0.89 1.91,-2.04 2.09,-3.46 0.18,-1.42 -0.13,-2.69 -0.95,-3.81 -0.96,-1.31 -2.11,-2.05 -3.44,-2.22 -1.34,-0.17 -2.62,0.19 -3.83,1.08l-40.82 29.76 -18.1 -24.83c-0.89,-1.22 -2,-1.95 -3.32,-2.2 -1.33,-0.25 -2.65,0.1 -3.96,1.06 -1.12,0.82 -1.81,1.93 -2.07,3.34 -0.26,1.41 0.05,2.72 0.94,3.94z"/>
   <path class="fil0" d="M3548.3 7546.26c-8.3,-8.72 -14.44,-18.48 -18.44,-29.3 -3.99,-10.82 -5.81,-21.84 -5.45,-33.04 0.19,-11.21 2.54,-22.17 7.06,-32.86 4.52,-10.7 11.14,-20.19 19.85,-28.5 8.63,-8.22 18.4,-14.33 29.3,-18.32 10.91,-3.99 21.96,-5.81 33.17,-5.46 11.12,0.27 22.02,2.65 32.67,7.12 10.66,4.48 20.13,11.07 28.43,19.78 8.3,8.72 14.62,18.33 18.95,28.83 4.33,10.5 6.61,21.15 6.83,31.97 0.15,10.72 -1.85,21.26 -5.99,31.59 -4.14,10.34 -10.57,19.66 -19.28,27.96 -3.27,3.11 -6.51,5.2 -9.73,6.27 -3.22,1.07 -6.33,1.28 -9.35,0.63 -3.09,-0.57 -6.16,-1.85 -9.18,-3.85 -3.02,-2 -6.01,-4.55 -8.96,-7.65l-51.96 -54.55c-0.77,1.54 -1.41,3.22 -1.91,5.04 -0.5,1.83 -0.68,3.73 -0.57,5.7 0.04,1.89 0.38,3.8 1.03,5.74 0.65,1.94 1.77,3.75 3.37,5.43 1.6,1.68 3.37,3.03 5.3,4.06 1.94,1.03 3.96,2.06 6.06,3.09 2.02,0.95 4.09,2.02 6.19,3.22 2.1,1.2 4.19,2.89 6.26,5.07 2.56,2.68 4.79,5.78 6.71,9.31 1.92,3.53 3.2,7.22 3.84,11.09 0.57,3.78 0.33,7.56 -0.7,11.34 -1.03,3.78 -3.22,7.27 -6.58,10.46 -4.86,4.63 -10.2,7.08 -16.01,7.35 -5.82,0.27 -11.73,-0.81 -17.73,-3.26 -6,-2.44 -11.87,-5.87 -17.61,-10.31 -5.74,-4.44 -10.93,-9.08 -15.56,-13.94zm20.27 -15.47c4.71,4.94 8.91,8.65 12.62,11.11 3.7,2.46 6.94,4.14 9.7,5.02 2.51,0.96 4.63,1.34 6.35,1.14 1.56,-0.21 2.47,-0.43 2.72,-0.67 0.75,-0.72 1.02,-1.74 0.81,-3.05 -0.22,-1.31 -0.76,-2.43 -1.64,-3.35 -0.56,-0.59 -0.96,-0.93 -1.2,-1.01 -1.38,-0.77 -2.65,-1.52 -3.82,-2.24 -1.17,-0.72 -2.2,-1.3 -3.09,-1.73 -1.86,-0.95 -3.61,-1.91 -5.27,-2.89 -1.65,-0.98 -3.24,-2.1 -4.76,-3.37 -1.69,-1.27 -3.61,-3.04 -5.77,-5.3 -4.63,-4.86 -8.13,-10.52 -10.52,-16.96 -2.38,-6.44 -3.4,-13.18 -3.07,-20.21 0.33,-7.03 2.13,-14.13 5.37,-21.3 3.25,-7.17 8.18,-13.9 14.8,-20.2l65.97 69.26c3.03,3.19 5.24,4.92 6.63,5.2 1.22,0.28 2.54,-0.27 3.96,-1.62 4.61,-4.39 8.13,-9.54 10.57,-15.46 2.44,-5.91 3.53,-12.11 3.28,-18.58 -0.17,-6.55 -1.7,-13.2 -4.61,-19.94 -2.91,-6.74 -7.27,-13.17 -13.1,-19.29 -5.03,-5.28 -10.9,-9.59 -17.61,-12.95 -6.71,-3.36 -13.7,-5.33 -20.98,-5.91 -7.44,-0.59 -14.95,0.41 -22.54,3.01 -7.59,2.6 -14.83,7.17 -21.7,13.71 -6.03,5.75 -10.66,12.39 -13.87,19.93 -3.21,7.53 -5,15.31 -5.35,23.32 -0.28,7.93 0.91,15.8 3.54,23.6 2.63,7.8 6.83,14.71 12.57,20.75zm78.9 -78.75c4.31,4.53 7.67,9.36 10.08,14.48 2.42,5.14 3.89,10.17 4.43,15.09 0.53,5.09 0.11,9.89 -1.27,14.4 -1.37,4.51 -3.5,8.53 -6.37,12.06l-64.05 -67.25c5.06,-2.58 10.27,-4.11 15.64,-4.59 5.38,-0.48 10.59,-0.17 15.63,0.94 5.05,1.27 9.79,3.19 14.23,5.74 4.44,2.57 8.34,5.61 11.69,9.13z"/>
   <path class="fil0" d="M3976.07 7653.87l-142.28 98.28c-6.09,4.04 -12.55,6.05 -19.37,6.02 -6.82,-0.03 -13.04,-1.88 -18.67,-5.55 -5.81,-3.8 -10.12,-8.74 -12.91,-14.85 -2.79,-6.1 -3.54,-12.89 -2.27,-20.34l32.8 -169.71c0.95,-4.63 2.66,-8.83 5.13,-12.61 4.87,-7.46 11.77,-12.22 20.71,-14.27 4.22,-0.97 8.6,-1.12 13.13,-0.44 4.54,0.67 8.93,2.41 13.2,5.19 5.62,3.67 9.8,8.6 12.52,14.8 2.73,6.2 3.45,12.82 2.17,19.87l-22.68 97.33 80.1 -59.87c5.51,-4.42 11.64,-6.61 18.38,-6.56 6.74,0.05 13.02,1.97 18.83,5.76 4.36,2.85 7.8,6.2 10.33,10.06 2.52,3.86 4.24,7.95 5.15,12.27 1.73,9 0.12,17.28 -4.81,24.84 -2.47,3.78 -5.63,7.04 -9.48,9.77zm-135.3 -98.24l-31.84 164.74c-0.43,1.52 -0.23,2.89 0.62,4.14 0.85,1.24 2.02,2.04 3.52,2.4 1.5,0.35 2.98,0.04 4.44,-0.94l141.9 -97.07c0.29,-0.22 0.54,-0.44 0.74,-0.66 0.2,-0.21 0.37,-0.41 0.5,-0.61 0.57,-0.87 0.81,-2.03 0.71,-3.47 -0.09,-1.44 -0.92,-2.67 -2.47,-3.69 -2.04,-1.33 -3.99,-1.3 -5.87,0.1l-131.38 89.84 29.32 -152.29c0.52,-2.29 -0.23,-4.09 -2.27,-5.42 -1.55,-1.01 -3,-1.27 -4.36,-0.77 -1.36,0.49 -2.33,1.18 -2.89,2.05 -0.13,0.19 -0.25,0.43 -0.35,0.7 -0.11,0.27 -0.22,0.59 -0.31,0.94z"/>
   <path class="fil0" d="M4029.24 7687.54c2.13,2.99 3.72,6.04 4.77,9.14 1.36,4.04 1.92,8.32 1.68,12.85 -0.24,4.53 -1.39,8.87 -3.44,13.01l-47.6 96.15c-2.1,4.25 -4.89,7.85 -8.34,10.78 -3.45,2.94 -7.2,5.09 -11.23,6.45 -4.19,1.41 -8.53,1.98 -13.04,1.68 -4.5,-0.29 -8.83,-1.46 -12.98,-3.52 -4.25,-2.11 -7.86,-4.86 -10.82,-8.27 -2.96,-3.4 -5.1,-7.17 -6.41,-11.31 -1.36,-4.03 -1.89,-8.3 -1.6,-12.8 0.29,-4.5 1.49,-8.88 3.59,-13.13l47.6 -96.15c2.05,-4.15 4.78,-7.7 8.19,-10.66 3.4,-2.96 7.12,-5.13 11.15,-6.49 3.41,-1.15 6.8,-1.73 10.16,-1.74 -2.29,-2.94 -3.91,-6.07 -4.85,-9.37 -1.47,-4.08 -2.09,-8.37 -1.88,-12.84 0.22,-4.48 1.4,-8.9 3.56,-13.26 2.11,-4.25 4.87,-7.82 8.3,-10.7 3.43,-2.89 7.22,-4.99 11.35,-6.3 4.03,-1.36 8.32,-1.88 12.88,-1.56 4.56,0.32 9.01,1.56 13.37,3.71 4.25,2.11 7.89,4.88 10.9,8.31 3.02,3.43 5.26,7.19 6.72,11.27 1.47,4.08 2.09,8.37 1.87,12.84 -0.22,4.47 -1.37,8.84 -3.48,13.09 -2.16,4.36 -4.95,7.98 -8.38,10.87 -3.43,2.89 -7.21,4.98 -11.35,6.3 -3.41,1.15 -6.98,1.71 -10.71,1.67zm2.48 -40.22c-1.77,-0.87 -3.49,-0.98 -5.17,-0.33 -1.68,0.65 -2.96,1.86 -3.83,3.62 -0.87,1.76 -1.04,3.49 -0.52,5.17 0.52,1.69 1.67,2.96 3.43,3.83 1.76,0.87 3.5,1.02 5.2,0.44 1.7,-0.57 3,-1.74 3.87,-3.51 0.87,-1.76 1.03,-3.52 0.48,-5.28 -0.55,-1.76 -1.7,-3.07 -3.46,-3.94zm-25.14 62.51c0.62,-1.24 0.69,-2.56 0.22,-3.96 -0.47,-1.4 -1.33,-2.4 -2.57,-3.02 -1.45,-0.72 -2.82,-0.82 -4.12,-0.3 -1.29,0.52 -2.24,1.41 -2.86,2.65l-47.44 95.83c-0.67,1.35 -0.81,2.67 -0.42,3.96 0.4,1.3 1.32,2.3 2.77,3.02 1.25,0.62 2.55,0.72 3.92,0.3 1.37,-0.42 2.39,-1.3 3.06,-2.66l47.44 -95.83z"/>
   <path class="fil0" d="M4020.19 7835.69l42.96 -114.22c4.4,-11.7 12.5,-15.33 24.31,-10.89 5.31,2 9.24,4.93 11.81,8.8 2.56,3.87 4.17,8.89 4.81,15.07 8.01,-2.55 16.04,-3.86 24.1,-3.92 8.06,-0.06 15.89,1.34 23.47,4.19 5.09,1.91 10.12,4.48 15.08,7.71 4.97,3.23 9.13,6.95 12.48,11.19 3.43,4.38 5.71,9.25 6.84,14.63 1.13,5.37 0.54,11.14 -1.79,17.32 -1.55,4.11 -3.8,7.65 -6.77,10.62 -2.97,2.96 -6.34,5.35 -10.11,7.14 -3.73,1.69 -7.74,2.66 -12.03,2.9 -4.3,0.23 -8.44,-0.4 -12.45,-1.91 -3.15,-1.18 -6.22,-2.71 -9.22,-4.58 -3,-1.87 -6.07,-3.4 -9.22,-4.58 -3.25,-1.22 -6,-1.73 -8.24,-1.52 -2.24,0.21 -4.18,1 -5.8,2.36 -1.63,1.36 -3.03,3.22 -4.22,5.56 -1.19,2.33 -2.35,5.02 -3.49,8.05l-18.82 50.05c-1.67,4.44 -4.08,8.3 -7.22,11.56 -3.15,3.27 -6.66,5.78 -10.54,7.54 -4.02,1.82 -8.29,2.81 -12.8,2.97 -4.52,0.16 -8.93,-0.57 -13.27,-2.2 -4.44,-1.67 -8.3,-4.06 -11.59,-7.15 -3.29,-3.09 -5.79,-6.63 -7.51,-10.61 -1.87,-3.91 -2.88,-8.13 -3.04,-12.64 -0.16,-4.51 0.59,-8.99 2.27,-13.43zm65.65 -92.7l-38.56 102.52c-0.53,1.41 -0.54,2.74 -0.02,3.98 0.52,1.25 1.54,2.15 3.06,2.72 1.41,0.53 2.74,0.51 4.01,-0.06 1.26,-0.58 2.17,-1.57 2.7,-2.98l20.96 -55.73c3.06,-8.13 7.14,-14.22 12.25,-18.29 5.12,-4.07 10.58,-6.75 16.38,-8.04 5.65,-1.21 11.37,-1.38 17.16,-0.5 5.79,0.88 10.91,2.16 15.35,3.83 2.06,0.78 3.71,1.48 4.94,2.14 1.24,0.65 2.3,1.27 3.2,1.85 0.74,0.65 1.41,1.18 1.99,1.59 0.59,0.41 1.32,0.78 2.19,1.1 1.3,0.49 2.54,0.65 3.72,0.47 1.18,-0.17 2.06,-1.02 2.62,-2.53 0.53,-1.41 0.44,-2.8 -0.28,-4.19 -0.72,-1.39 -1.86,-2.62 -3.43,-3.7 -1.54,-1.2 -3.33,-2.24 -5.41,-3.14 -2.07,-0.9 -4.13,-1.74 -6.19,-2.52 -6.83,-2.57 -13.36,-4.01 -19.61,-4.32 -6.25,-0.31 -11.87,0.08 -16.85,1.17 -4.99,1.09 -9.13,2.66 -12.43,4.69 -3.3,2.04 -5.46,4.09 -6.49,6.18l3.48 -9.26c2.24,-5.96 2.97,-10.38 2.2,-13.27 -0.77,-2.89 -1.97,-4.63 -3.59,-5.24 -1.63,-0.61 -2.74,-0.11 -3.35,1.52z"/>
   <path class="fil0" d="M4198.87 7897.08l17.54 -71.13 -3.04 -0.75c-4.6,-1.14 -8.61,-3.02 -12.02,-5.64 -3.41,-2.63 -6.21,-5.76 -8.41,-9.41 -2.09,-3.61 -3.5,-7.57 -4.23,-11.86 -0.73,-4.29 -0.55,-8.63 0.53,-13.01 1.11,-4.49 2.99,-8.5 5.64,-12.02 2.66,-3.52 5.75,-6.39 9.28,-8.61 3.64,-2.2 7.57,-3.65 11.79,-4.33 4.22,-0.69 8.64,-0.46 13.24,0.67l3.04 0.75 5.44 -22.08c1.11,-4.49 3,-8.55 5.69,-12.19 2.69,-3.63 5.85,-6.54 9.49,-8.74 3.65,-2.2 7.67,-3.68 12.09,-4.44 4.42,-0.76 8.99,-0.56 13.7,0.61 4.5,1.11 8.55,3.03 12.17,5.77 3.62,2.74 6.53,5.93 8.73,9.57 2.2,3.64 3.67,7.7 4.41,12.17 0.74,4.48 0.56,8.96 -0.54,13.45l-5.44 22.08 3.71 0.92c8.99,2.22 15.81,7.18 20.47,14.88 2.2,3.64 3.66,7.63 4.37,11.98 0.72,4.35 0.52,8.77 -0.59,13.26 -1.08,4.39 -2.94,8.3 -5.59,11.76 -2.64,3.46 -5.78,6.29 -9.42,8.49 -3.64,2.2 -7.61,3.67 -11.9,4.4 -4.29,0.72 -8.69,0.54 -13.18,-0.57l-3.71 -0.91 -17.54 71.13c-1.13,4.61 -3.07,8.72 -5.81,12.33 -2.74,3.61 -5.93,6.53 -9.57,8.73 -3.67,2.31 -7.74,3.81 -12.19,4.5 -4.46,0.69 -8.94,0.48 -13.44,-0.63 -4.72,-1.17 -8.86,-3.08 -12.44,-5.75 -3.57,-2.67 -6.44,-5.88 -8.62,-9.63 -2.2,-3.64 -3.65,-7.7 -4.33,-12.16 -0.68,-4.46 -0.46,-8.99 0.67,-13.6zm22.04 -98.8l29.83 7.36 -24.15 97.92c-0.33,1.35 -0.17,2.64 0.48,3.87 0.65,1.23 1.76,2.04 3.33,2.43 1.35,0.33 2.66,0.12 3.91,-0.64 1.26,-0.76 2.06,-1.81 2.39,-3.17l24.14 -97.92 31.18 7.69c1.46,0.36 2.8,0.15 4,-0.63 1.2,-0.78 1.97,-1.83 2.31,-3.19 0.39,-1.57 0.21,-2.93 -0.52,-4.06 -0.74,-1.14 -1.83,-1.89 -3.29,-2.24l-31.18 -7.69 12.09 -49.05c0.36,-1.46 0.15,-2.79 -0.63,-4 -0.77,-1.2 -1.83,-1.98 -3.19,-2.31 -1.57,-0.39 -2.93,-0.21 -4.06,0.52 -1.13,0.73 -1.88,1.83 -2.24,3.29l-12.09 49.04 -29.83 -7.35c-1.46,-0.36 -2.78,-0.21 -3.96,0.46 -1.18,0.66 -1.96,1.78 -2.35,3.35 -0.33,1.35 -0.15,2.65 0.56,3.89 0.7,1.25 1.79,2.05 3.25,2.41z"/>
   <path class="fil0" d="M4513.47 7840.36l-12.8 121.36c-1.31,12.43 -8.24,17.98 -20.78,16.66 -5.75,-0.61 -10.35,-2.52 -13.8,-5.73 -3.44,-3.22 -6.3,-7.8 -8.59,-13.74 -6.32,3.64 -12.37,6.32 -18.13,8.04 -5.76,1.72 -11.06,2.84 -15.89,3.38 -4.94,0.53 -9.35,0.67 -13.23,0.44 -3.87,-0.24 -7.13,-0.49 -9.78,-0.77 -11.97,-1.26 -22.43,-4.69 -31.39,-10.29 -8.95,-5.6 -16.24,-12.65 -21.85,-21.16 -5.74,-8.51 -9.78,-18.22 -12.12,-29.11 -2.34,-10.9 -2.88,-22.33 -1.62,-34.3l5.64 -53.52c0.49,-4.6 1.83,-8.82 4.04,-12.66 2.21,-3.84 4.97,-7.16 8.3,-9.95 3.31,-2.68 7.1,-4.69 11.37,-6.04 4.27,-1.35 8.71,-1.79 13.31,-1.3 4.6,0.48 8.88,1.84 12.83,4.06 3.96,2.22 7.33,5 10.12,8.31 2.78,3.43 4.85,7.26 6.21,11.48 1.36,4.22 1.8,8.63 1.31,13.23l-5.65 53.52c-0.61,5.76 0.67,10.78 3.82,15.07 1.53,2.03 3.42,3.73 5.65,5.13 2.24,1.4 4.74,2.24 7.5,2.54 2.76,0.29 5.38,0.05 7.85,-0.74 2.47,-0.79 4.72,-2.01 6.76,-3.65 4.19,-3.4 6.7,-7.85 7.52,-13.34l5.7 -54.04c0.5,-4.72 1.86,-9.06 4.07,-13.01 2.22,-3.96 5.05,-7.32 8.49,-10.1 3.31,-2.68 7.09,-4.66 11.36,-5.96 4.26,-1.3 8.76,-1.69 13.48,-1.2 4.72,0.5 9.06,1.83 13.02,3.99 3.95,2.16 7.33,4.9 10.13,8.22 2.66,3.42 4.64,7.3 5.93,11.63 1.29,4.32 1.69,8.85 1.19,13.56zm-39.82 102.8l11.22 -106.34c0.15,-1.38 -0.19,-2.64 -1,-3.77 -0.81,-1.13 -2.02,-1.78 -3.63,-1.95 -1.38,-0.15 -2.65,0.24 -3.79,1.17 -1.15,0.93 -1.79,2.08 -1.94,3.46l-4.73 44.89c-0.76,7.13 -2.93,14 -6.54,20.61 -3.61,6.6 -8.11,12.35 -13.51,17.25 -5.53,5 -11.79,8.85 -18.76,11.55 -6.98,2.7 -14.2,3.65 -21.69,2.86 -7.13,-0.76 -13.18,-2.76 -18.13,-6.01 -4.95,-3.26 -8.91,-7.37 -11.88,-12.34 -2.95,-5.08 -4.93,-10.85 -5.94,-17.3 -1.01,-6.45 -1.13,-13.3 -0.36,-20.55l5.31 -50.41c0.12,-1.15 -0.15,-2.46 -0.81,-3.93 -0.66,-1.46 -1.91,-2.3 -3.75,-2.49 -1.84,-0.2 -3.24,0.33 -4.19,1.57 -0.94,1.24 -1.48,2.49 -1.61,3.76l-5.33 50.58c-0.91,8.63 -0.67,16.8 0.73,24.52 1.4,7.71 3.94,14.5 7.63,20.35 3.68,5.97 8.51,10.88 14.5,14.71 6,3.83 13.2,6.19 21.6,7.08 7.71,0.81 14.93,0.26 21.64,-1.65 6.72,-1.91 12.7,-4.51 17.93,-7.8 5.23,-3.29 9.57,-6.96 13.03,-11.02 3.45,-4.06 5.77,-7.83 6.95,-11.31l-2.62 24.86c-0.37,3.45 0.11,6.35 1.44,8.7 1.32,2.35 2.85,3.61 4.57,3.8 1.61,0.17 2.59,-0.22 2.91,-1.17 0.33,-0.96 0.58,-2.18 0.74,-3.68z"/>
   <path class="fil0" d="M4705.08 7816.4l7.25 137.47c0.66,12.48 -5.25,19.05 -17.73,19.71 -5.55,0.29 -10.37,-0.93 -14.45,-3.67 -4.09,-2.74 -7.59,-6.47 -10.5,-11.19 -5.28,5.38 -11.54,9.68 -18.79,12.9 -7.24,3.22 -15.55,5.08 -24.91,5.57 -12.02,0.63 -23.44,-1.06 -34.26,-5.06 -10.81,-4.01 -20.36,-9.8 -28.64,-17.35 -8.39,-7.43 -15.17,-16.35 -20.36,-26.74 -5.19,-10.39 -8.09,-21.59 -8.73,-33.61 -0.63,-11.91 1.09,-23.3 5.15,-34.17 4.06,-10.88 9.87,-20.46 17.43,-28.74 7.44,-8.27 16.33,-15 26.66,-20.18 10.33,-5.18 21.51,-8.09 33.53,-8.72 9.36,-0.5 17.78,0.48 25.27,2.93 7.49,2.44 14.14,6.06 19.95,10.85 2.4,-5.11 5.45,-9.27 9.17,-12.48 3.71,-3.21 8.46,-4.97 14.24,-5.28 12.48,-0.66 19.05,5.26 19.7,17.74zm-22.21 122.68l-5.73 -108.69c-0.04,-0.81 -0.42,-1.4 -1.13,-1.77 -0.72,-0.37 -1.48,-0.53 -2.28,-0.49 -1.62,0.08 -3.13,1.09 -4.54,3.02 -1.52,2.05 -2.12,5.97 -1.82,11.74l0.9 16.99c-2,-5 -4.78,-9.37 -8.34,-13.12 -3.56,-3.75 -7.66,-6.84 -12.31,-9.26 -9.41,-4.95 -19.78,-7.13 -31.11,-6.53 -7.98,0.42 -15.32,2.34 -22.04,5.77 -6.71,3.43 -12.47,7.93 -17.28,13.51 -4.92,5.59 -8.64,11.99 -11.15,19.19 -2.52,7.2 -3.57,14.85 -3.14,22.94 0.42,7.98 2.27,15.44 5.53,22.4 3.26,6.95 7.64,12.95 13.11,17.99 5.37,5.05 11.57,8.93 18.61,11.63 7.04,2.7 14.54,3.83 22.52,3.42 11.21,-0.59 21.28,-4.07 30.21,-10.46 4.36,-3.13 8.13,-6.86 11.32,-11.2 3.19,-4.34 5.45,-9.21 6.79,-14.61l1.2 22.88c0.1,1.97 0.48,3.6 1.13,4.9 0.65,1.3 1.4,2.39 2.26,3.27 1.71,1.65 3.48,2.42 5.33,2.32 1.27,-0.07 1.94,-0.59 2,-1.58 0.06,-0.99 0.05,-2.41 -0.05,-4.26zm-15.27 -52.21c0.36,6.82 -0.52,13.27 -2.63,19.35 -2.11,6.08 -5.25,11.43 -9.41,16.05 -4.05,4.61 -8.94,8.38 -14.7,11.29 -5.76,2.91 -11.98,4.54 -18.69,4.9 -6.7,0.35 -12.95,-0.62 -18.75,-2.92 -5.8,-2.3 -10.84,-5.54 -15.12,-9.72 -4.39,-4.17 -7.9,-9.17 -10.53,-15 -2.62,-5.83 -4.11,-12.15 -4.47,-18.98 -0.36,-6.82 0.46,-13.27 2.45,-19.34 2,-6.07 4.96,-11.47 8.88,-16.2 3.81,-4.61 8.49,-8.35 14.01,-11.25 5.52,-2.9 11.64,-4.53 18.34,-4.88 6.7,-0.35 13.07,0.61 19.1,2.9 6.03,2.29 11.3,5.52 15.81,9.68 4.63,4.28 8.31,9.33 11.05,15.15 2.74,5.82 4.3,12.14 4.65,18.96zm-26.84 1.94l-0.05 -0.87c-0.25,-2.65 -0.96,-5.16 -2.13,-7.53 -1.17,-2.37 -2.67,-4.44 -4.5,-6.2 -1.82,-1.64 -3.92,-2.95 -6.29,-3.92 -2.37,-0.98 -4.89,-1.4 -7.54,-1.26 -2.78,0.15 -5.32,0.83 -7.63,2.06 -2.31,1.22 -4.28,2.86 -5.91,4.91 -3.49,4.24 -5.08,9.19 -4.78,14.85 0.3,5.78 2.41,10.59 6.33,14.44 1.83,1.76 3.96,3.18 6.39,4.27 2.44,1.09 5.04,1.56 7.81,1.41 2.78,-0.15 5.31,-0.89 7.62,-2.22 2.3,-1.34 4.28,-2.98 5.91,-4.92 3.49,-4.24 5.07,-9.25 4.77,-15.03z"/>
   <path class="fil0" d="M4754.38 7930.96l-27.45 -159.8c-0.78,-4.56 -0.67,-9.04 0.33,-13.44 1.01,-4.4 2.8,-8.35 5.37,-11.84 2.45,-3.48 5.58,-6.45 9.38,-8.93 3.81,-2.47 8.04,-4.11 12.72,-4.92 4.56,-0.78 9.04,-0.64 13.46,0.42 4.41,1.06 8.41,2.81 12,5.25 3.47,2.46 6.45,5.58 8.92,9.39 2.47,3.81 4.1,7.98 4.89,12.55l27.45 159.8c0.8,4.68 0.67,9.22 -0.39,13.63 -1.07,4.41 -2.82,8.35 -5.28,11.83 -2.55,3.61 -5.73,6.62 -9.54,9.04 -3.82,2.42 -8,4.02 -12.56,4.8 -4.68,0.8 -9.22,0.7 -13.62,-0.31 -4.4,-1 -8.35,-2.79 -11.84,-5.36 -3.59,-2.44 -6.59,-5.56 -9.01,-9.37 -2.42,-3.81 -4.03,-8.06 -4.83,-12.73zm0.95 -164.68l27.39 159.45c0.24,1.37 0.89,2.49 1.98,3.36 1.09,0.87 2.43,1.17 4.03,0.89 1.37,-0.24 2.48,-0.95 3.33,-2.15 0.85,-1.2 1.16,-2.49 0.93,-3.86l-27.39 -159.45c-0.25,-1.48 -0.98,-2.62 -2.17,-3.41 -1.19,-0.79 -2.47,-1.07 -3.84,-0.84 -1.6,0.28 -2.77,0.98 -3.52,2.1 -0.74,1.13 -0.99,2.43 -0.74,3.91z"/>
   <path class="fil0" d="M5032.06 7738.81c-2.82,1.05 -6.5,1.37 -11.03,0.96 -4.54,-0.41 -9.27,-0.93 -14.2,-1.56 -4.82,-0.67 -9.55,-1.19 -14.2,-1.56 -4.65,-0.37 -8.32,-0.05 -11.04,0.96 -2.5,0.93 -4.43,1.8 -5.79,2.62 -1.36,0.81 -1.66,2.25 -0.89,4.31 0.61,1.63 3.33,2.46 8.17,2.52 4.76,0.2 10.78,0.36 18.06,0.49 7.28,0.13 15.25,0.74 23.93,1.82 8.75,0.94 17.33,3.17 25.75,6.71 8.42,3.53 16.26,8.57 23.52,15.13 7.27,6.92 12.99,15.97 17.16,27.13 4.32,11.6 5.63,22.48 3.92,32.63 -1.71,10.15 -5.24,19.31 -10.6,27.48 -5.5,8.1 -12.19,15.1 -20.05,21 -7.87,5.89 -15.87,10.36 -24,13.39 -9.44,3.52 -18.26,5.79 -26.46,6.81 -8.2,1.02 -15.72,1.14 -22.56,0.35 -6.91,-0.64 -13.15,-2.05 -18.72,-4.23 -5.57,-2.18 -10.44,-4.72 -14.61,-7.62 -4.12,-2.78 -7.5,-5.78 -10.12,-9.01 -2.63,-3.22 -4.48,-6.3 -5.57,-9.22 -1.54,-4.12 -2.37,-8.32 -2.48,-12.6 -0.11,-4.28 0.57,-8.24 2.06,-11.89 1.44,-3.75 3.71,-7.09 6.81,-10.04 3.1,-2.95 7.04,-5.31 11.81,-7.09 3.47,-1.29 6.79,-2 9.95,-2.13 3.16,-0.13 6.26,0.04 9.28,0.52 1.47,0.31 2.97,0.59 4.48,0.83 1.51,0.24 3.02,0.57 4.54,0.99 3.04,0.85 6.09,1.5 9.16,1.96 3.07,0.46 6.24,0.58 9.49,0.35 3.18,-0.08 6.62,-0.8 10.31,-2.18 2.6,-0.97 4.99,-2.17 7.18,-3.6 1.9,-1.2 2.58,-2.51 2.06,-3.92 -0.61,-1.63 -2.36,-2.7 -5.27,-3.22 -2.96,-0.63 -6.72,-1.14 -11.32,-1.52 -4.59,-0.39 -9.88,-0.83 -15.86,-1.31 -5.84,-0.41 -11.93,-1.17 -18.26,-2.27 -6.34,-1.09 -12.78,-2.65 -19.33,-4.65 -6.44,-2.04 -12.61,-4.83 -18.5,-8.39 -5.89,-3.55 -11.2,-8.02 -15.93,-13.42 -4.69,-5.29 -8.54,-11.95 -11.52,-19.97 -7.32,-19.63 -6.5,-37.47 2.46,-53.53 4.33,-7.92 10.71,-15.17 19.12,-21.77 8.41,-6.59 18.8,-12.2 31.16,-16.8 8.89,-3.32 19.46,-4.97 31.69,-4.96 5.87,0.16 11.76,0.74 17.69,1.74 5.93,1 11.45,2.71 16.55,5.13 5.17,2.27 9.69,5.28 13.56,9.03 3.87,3.74 6.77,8.22 8.71,13.43 3.56,9.54 3.4,17.75 -0.45,24.63 -3.86,6.87 -10.46,12.05 -19.78,15.52zm-10.27 -26.56l1.5 -0.93c0.89,-0.58 1.49,-1.39 1.78,-2.43 0.3,-1.04 0.28,-1.99 -0.04,-2.86 -0.65,-1.73 -1.95,-2.91 -3.92,-3.54 -3.74,-1.08 -7.39,-2.09 -10.96,-3.05 -3.57,-0.96 -7.31,-1.57 -11.24,-1.83 -3.93,-0.27 -8.15,-0.08 -12.67,0.55 -4.52,0.64 -9.6,2 -15.24,4.11 -5.53,2.06 -10.76,4.85 -15.69,8.35 -4.93,3.5 -9.09,7.49 -12.49,11.97 -3.24,4.55 -5.48,9.48 -6.7,14.82 -1.22,5.33 -0.78,10.82 1.32,16.46 2.39,6.4 5.66,11.54 9.82,15.43 4.17,3.88 8.91,6.99 14.23,9.33 5.32,2.34 11.04,4.04 17.18,5.09 6.13,1.04 12.31,1.96 18.53,2.73 6.22,0.77 12.35,1.57 18.4,2.4 6.06,0.83 11.61,2.09 16.69,3.78 5.11,1.8 9.63,4.22 13.55,7.27 3.92,3.05 6.92,7.2 9.01,12.48 1.9,5.1 2.45,9.9 1.66,14.39 -0.8,4.5 -2.54,8.6 -5.23,12.32 -2.8,3.76 -6.3,7.11 -10.52,10.04 -4.22,2.94 -8.82,5.33 -13.81,7.19 -5.2,1.94 -10.22,3.13 -15.06,3.57 -4.83,0.44 -9.44,0.43 -13.81,-0.04 -4.37,-0.47 -8.46,-1.24 -12.25,-2.29 -3.79,-1.06 -7.19,-2.14 -10.19,-3.25 -1,-0.36 -2.04,-0.35 -3.13,0.06 -1.3,0.48 -2.17,1.37 -2.63,2.65 -0.44,1.28 -0.45,2.52 -0.01,3.71 0.61,1.63 2.13,2.97 4.57,4.04 2.43,1.07 5.46,1.98 9.07,2.73 3.46,0.69 7.37,1.21 11.7,1.57 4.33,0.36 8.62,0.43 12.86,0.2 4.28,-0.11 8.38,-0.46 12.3,-1.06 3.92,-0.59 7.28,-1.42 10.1,-2.47 7.48,-2.79 13.87,-6.28 19.16,-10.48 5.3,-4.2 9.39,-8.87 12.28,-14.03 6.01,-10.39 6.71,-21.76 2.1,-34.13 -2.31,-6.19 -5.5,-11.11 -9.59,-14.77 -4.08,-3.67 -8.74,-6.56 -13.98,-8.69 -5.35,-2.08 -11.06,-3.57 -17.13,-4.45 -6.07,-0.88 -12.2,-1.66 -18.37,-2.32 -6.14,-0.56 -12.21,-1.2 -18.22,-1.92 -6.02,-0.72 -11.58,-1.98 -16.69,-3.78 -5.22,-1.76 -9.81,-4.28 -13.75,-7.56 -3.94,-3.29 -6.96,-7.75 -9.06,-13.39 -1.66,-4.44 -1.93,-8.63 -0.8,-12.57 1.13,-3.94 3.12,-7.55 5.96,-10.84 2.85,-3.29 6.28,-6.17 10.3,-8.66 4.02,-2.48 8.03,-4.47 12.04,-5.97 7.59,-2.83 14.54,-4.06 20.85,-3.7 3.26,0.14 6.59,0.54 9.98,1.19 3.39,0.65 7.23,1.41 11.51,2.29 0.25,0.03 0.59,0.09 1,0.19 0.4,0.09 0.81,0.19 1.21,0.29 0.7,0.23 1.55,0.17 2.52,-0.2z"/>
   <path class="fil0" d="M5107.33 7773.37c-5.71,-10.46 -9.09,-21.47 -10.13,-33.03 -1.04,-11.56 0.05,-22.71 3.29,-33.45 3.13,-10.67 8.24,-20.59 15.31,-29.72 7.07,-9.14 15.89,-16.6 26.45,-22.37 10.57,-5.77 21.6,-9.17 33.11,-10.18 11.51,-1.02 22.66,0.02 33.44,3.09 10.68,3.13 20.61,8.26 29.77,15.39 9.17,7.12 16.61,15.91 22.32,26.37 5.77,10.57 9.18,21.63 10.22,33.19 1.04,11.56 -0,22.68 -3.13,33.36 -3.18,10.83 -8.32,20.8 -15.42,29.89 -7.11,9.09 -15.94,16.52 -26.5,22.29 -10.56,5.77 -21.59,9.19 -33.07,10.26 -11.48,1.06 -22.6,-0.02 -33.33,-3.26 -10.78,-3.07 -20.76,-8.17 -29.92,-15.3 -9.17,-7.13 -16.63,-15.96 -22.41,-26.53zm24.98 -13.65c3.89,7.11 8.92,13.06 15.1,17.87 6.19,4.8 12.89,8.25 20.11,10.37 7.23,2.12 14.74,2.83 22.53,2.13 7.8,-0.7 15.25,-2.99 22.36,-6.87 7.11,-3.89 13.06,-8.92 17.86,-15.11 4.8,-6.18 8.26,-12.88 10.38,-20.11 2.22,-7.28 2.95,-14.8 2.2,-22.56 -0.74,-7.77 -3.06,-15.21 -6.95,-22.32 -3.88,-7.11 -8.89,-13.08 -15.02,-17.9 -6.13,-4.83 -12.86,-8.27 -20.19,-10.33 -7.28,-2.22 -14.8,-2.95 -22.57,-2.21 -7.77,0.75 -15.2,3.07 -22.31,6.95 -7.11,3.88 -13.07,8.89 -17.9,15.02 -4.82,6.13 -8.27,12.86 -10.33,20.19 -2.12,7.22 -2.83,14.73 -2.13,22.53 0.7,7.79 2.99,15.25 6.87,22.35zm9.44 -5.16c-3.22,-5.89 -5.15,-12.08 -5.8,-18.59 -0.65,-6.5 -0.18,-12.76 1.41,-18.77 1.75,-5.97 4.57,-11.5 8.45,-16.59 3.88,-5.08 8.76,-9.24 14.65,-12.46 5.89,-3.22 12.07,-5.11 18.56,-5.69 6.48,-0.57 12.65,0.05 18.52,1.85 6.02,1.85 11.54,4.83 16.56,8.95 5.02,4.12 9.13,9.12 12.35,15.01 3.28,6 5.28,12.21 6.04,18.66 0.75,6.44 0.26,12.65 -1.5,18.62 -1.59,6.01 -4.38,11.59 -8.36,16.74 -3.98,5.14 -8.92,9.32 -14.81,12.54 -5.89,3.22 -12.02,5.08 -18.4,5.6 -6.38,0.52 -12.58,-0.15 -18.6,-2 -5.87,-1.81 -11.36,-4.74 -16.48,-8.8 -5.12,-4.06 -9.31,-9.08 -12.59,-15.08zm25.29 -13.81c2.78,5.08 6.76,8.51 11.95,10.28 2.41,0.8 4.95,1.15 7.61,1.09 2.66,-0.07 5.22,-0.77 7.65,-2.1 2.44,-1.33 4.41,-3.11 5.91,-5.3 1.5,-2.21 2.57,-4.54 3.2,-7 1.31,-5.33 0.57,-10.54 -2.2,-15.61 -2.72,-4.98 -6.67,-8.35 -11.87,-10.13 -2.47,-0.89 -5,-1.25 -7.61,-1.07 -2.61,0.17 -5.13,0.92 -7.57,2.25 -2.44,1.33 -4.44,3.05 -5.99,5.15 -1.55,2.1 -2.62,4.43 -3.2,6.99 -1.31,5.33 -0.6,10.48 2.12,15.46z"/>
   <path class="fil0" d="M5312.55 7716.61l-93.31 -132.59c-2.67,-3.79 -4.48,-7.88 -5.46,-12.29 -0.98,-4.41 -1.06,-8.74 -0.23,-13 0.73,-4.2 2.28,-8.22 4.65,-12.09 2.38,-3.87 5.5,-7.16 9.39,-9.9 3.78,-2.66 7.89,-4.46 12.34,-5.39 4.44,-0.93 8.8,-1.07 13.09,-0.4 4.19,0.73 8.22,2.28 12.08,4.65 3.87,2.38 7.13,5.45 9.79,9.24l93.31 132.59c2.73,3.88 4.56,8.04 5.49,12.48 0.93,4.44 1.03,8.76 0.3,12.95 -0.76,4.35 -2.34,8.44 -4.75,12.26 -2.41,3.82 -5.5,7.06 -9.29,9.72 -3.89,2.73 -8.03,4.58 -12.44,5.56 -4.4,0.98 -8.74,1.06 -12.99,0.23 -4.29,-0.66 -8.34,-2.2 -12.16,-4.61 -3.82,-2.41 -7.09,-5.55 -9.82,-9.43zm-69.75 -149.18l93.11 132.31c0.8,1.14 1.87,1.87 3.23,2.19 1.36,0.31 2.7,0.01 4.02,-0.93 1.14,-0.8 1.83,-1.93 2.08,-3.37 0.26,-1.45 -0.02,-2.74 -0.82,-3.89l-93.11 -132.31c-0.87,-1.23 -2.01,-1.95 -3.43,-2.15 -1.42,-0.2 -2.7,0.09 -3.83,0.89 -1.33,0.93 -2.08,2.07 -2.28,3.41 -0.19,1.34 0.15,2.62 1.02,3.85z"/>
   <path class="fil0" d="M5460.55 7458.39l81.56 90.78c8.35,9.3 7.84,18.16 -1.54,26.59 -4.3,3.87 -8.8,6 -13.5,6.41 -4.7,0.4 -10.01,-0.54 -15.95,-2.82 -1.53,7.13 -3.59,13.41 -6.17,18.85 -2.59,5.43 -5.3,10.12 -8.13,14.07 -2.92,4.02 -5.76,7.4 -8.54,10.12 -2.76,2.72 -5.14,4.97 -7.11,6.75 -8.95,8.04 -18.51,13.52 -28.66,16.42 -10.15,2.9 -20.27,3.58 -30.35,2.06 -10.17,-1.44 -20.08,-4.94 -29.74,-10.5 -9.67,-5.56 -18.52,-12.81 -26.56,-21.76l-35.97 -40.03c-3.09,-3.44 -5.32,-7.27 -6.7,-11.48 -1.37,-4.21 -1.99,-8.48 -1.83,-12.82 0.23,-4.24 1.27,-8.41 3.13,-12.49 1.86,-4.08 4.51,-7.67 7.95,-10.76 3.44,-3.09 7.31,-5.37 11.61,-6.81 4.3,-1.45 8.62,-2.1 12.95,-1.95 4.41,0.23 8.64,1.26 12.68,3.07 4.04,1.81 7.61,4.44 10.7,7.88l35.96 40.03c3.87,4.3 8.45,6.72 13.75,7.25 2.53,0.22 5.06,-0.04 7.6,-0.76 2.54,-0.72 4.84,-2.02 6.91,-3.87 2.07,-1.86 3.63,-3.97 4.7,-6.32 1.06,-2.36 1.67,-4.85 1.81,-7.47 0.29,-5.39 -1.34,-10.23 -4.88,-14.52l-36.31 -40.42c-3.17,-3.53 -5.48,-7.44 -6.93,-11.74 -1.45,-4.3 -2.06,-8.65 -1.82,-13.07 0.22,-4.25 1.29,-8.39 3.18,-12.43 1.89,-4.04 4.61,-7.64 8.14,-10.81 3.53,-3.17 7.43,-5.51 11.68,-7 4.26,-1.49 8.56,-2.17 12.89,-2.02 4.33,0.31 8.53,1.44 12.61,3.38 4.07,1.94 7.7,4.67 10.87,8.2zm49.69 98.41l-71.47 -79.54c-0.93,-1.03 -2.09,-1.63 -3.47,-1.78 -1.39,-0.16 -2.68,0.3 -3.89,1.39 -1.04,0.93 -1.59,2.13 -1.67,3.6 -0.08,1.47 0.35,2.72 1.27,3.75l30.17 33.57c4.8,5.34 8.44,11.56 10.93,18.65 2.49,7.1 3.74,14.3 3.76,21.59 0.01,7.46 -1.32,14.68 -3.98,21.67 -2.67,6.98 -6.8,12.99 -12.4,18.02 -5.33,4.8 -10.87,7.94 -16.61,9.44 -5.73,1.49 -11.44,1.68 -17.11,0.56 -5.75,-1.21 -11.36,-3.6 -16.83,-7.17 -5.46,-3.57 -10.63,-8.07 -15.5,-13.49l-33.88 -37.7c-0.78,-0.86 -1.93,-1.54 -3.46,-2.03 -1.54,-0.49 -2.99,-0.12 -4.36,1.12 -1.38,1.24 -1.93,2.63 -1.64,4.16 0.29,1.53 0.86,2.77 1.71,3.72l33.99 37.83c5.8,6.46 12.03,11.75 18.7,15.87 6.66,4.13 13.41,6.78 20.22,7.96 6.9,1.27 13.78,0.96 20.64,-0.93 6.87,-1.89 13.44,-5.65 19.72,-11.3 5.77,-5.18 10.19,-10.91 13.27,-17.17 3.08,-6.27 5.15,-12.45 6.22,-18.54 1.06,-6.09 1.24,-11.78 0.54,-17.06 -0.7,-5.28 -1.95,-9.53 -3.75,-12.74l16.71 18.6c2.32,2.58 4.8,4.17 7.43,4.76 2.63,0.59 4.59,0.31 5.88,-0.85 1.21,-1.08 1.57,-2.07 1.08,-2.95 -0.48,-0.89 -1.23,-1.89 -2.24,-3.02z"/>
   <path class="fil0" d="M5573.91 7489.35l-55.93 -47.31 -2.02 2.39c-3.06,3.62 -6.53,6.37 -10.39,8.26 -3.87,1.88 -7.92,3 -12.16,3.35 -4.17,0.26 -8.33,-0.23 -12.5,-1.48 -4.17,-1.25 -7.97,-3.34 -11.42,-6.26 -3.53,-2.99 -6.29,-6.45 -8.26,-10.39 -1.97,-3.94 -3.17,-7.99 -3.6,-12.14 -0.35,-4.24 0.1,-8.41 1.36,-12.49 1.26,-4.09 3.42,-7.95 6.48,-11.57l2.02 -2.39 -17.36 -14.69c-3.53,-2.99 -6.33,-6.49 -8.39,-10.51 -2.06,-4.02 -3.26,-8.15 -3.62,-12.39 -0.35,-4.24 0.11,-8.51 1.39,-12.8 1.29,-4.3 3.5,-8.3 6.63,-12.01 2.99,-3.54 6.51,-6.31 10.58,-8.33 4.06,-2.02 8.21,-3.21 12.45,-3.56 4.24,-0.35 8.53,0.13 12.87,1.45 4.34,1.32 8.28,3.48 11.81,6.46l17.36 14.69 2.47 -2.92c5.98,-7.07 13.46,-10.98 22.43,-11.72 4.24,-0.35 8.46,0.11 12.68,1.41 4.21,1.29 8.09,3.43 11.62,6.42 3.45,2.91 6.13,6.33 8.06,10.23 1.93,3.9 3.07,7.97 3.42,12.21 0.36,4.24 -0.09,8.45 -1.35,12.62 -1.26,4.17 -3.38,8.02 -6.37,11.56l-2.46 2.91 55.93 47.31c3.62,3.06 6.44,6.63 8.46,10.69 2.02,4.06 3.22,8.21 3.57,12.45 0.44,4.31 -0.02,8.63 -1.39,12.93 -1.37,4.3 -3.54,8.22 -6.53,11.76 -3.14,3.71 -6.7,6.57 -10.68,8.59 -3.98,2.02 -8.13,3.16 -12.46,3.44 -4.24,0.35 -8.51,-0.15 -12.81,-1.52 -4.3,-1.37 -8.26,-3.58 -11.89,-6.65zm-78.72 -63.64l19.84 -23.46 77 65.14c1.07,0.9 2.29,1.33 3.69,1.3 1.39,-0.04 2.61,-0.67 3.66,-1.91 0.9,-1.06 1.29,-2.33 1.17,-3.79 -0.12,-1.47 -0.71,-2.65 -1.78,-3.55l-77 -65.14 20.74 -24.52c0.97,-1.15 1.38,-2.43 1.22,-3.86 -0.16,-1.43 -0.77,-2.58 -1.83,-3.48 -1.24,-1.05 -2.53,-1.5 -3.87,-1.34 -1.34,0.15 -2.5,0.8 -3.47,1.95l-20.74 24.52 -38.57 -32.63c-1.15,-0.97 -2.43,-1.38 -3.86,-1.22 -1.42,0.16 -2.58,0.77 -3.48,1.83 -1.05,1.24 -1.49,2.53 -1.34,3.87 0.15,1.34 0.8,2.5 1.95,3.47l38.57 32.63 -19.85 23.46c-0.97,1.15 -1.42,2.4 -1.35,3.75 0.07,1.35 0.72,2.55 1.96,3.59 1.06,0.9 2.3,1.3 3.74,1.22 1.43,-0.07 2.63,-0.69 3.61,-1.84z"/>
   <path class="fil0" d="M5571.67 7268.22c3.27,-1.67 6.52,-2.8 9.73,-3.39 4.19,-0.76 8.51,-0.69 12.96,0.21 4.44,0.9 8.57,2.66 12.37,5.3l88.19 61.09c3.9,2.7 7.05,5.98 9.45,9.82 2.41,3.85 3.99,7.87 4.74,12.05 0.79,4.35 0.71,8.73 -0.24,13.14 -0.94,4.41 -2.74,8.52 -5.37,12.33 -2.7,3.9 -5.96,7.07 -9.76,9.5 -3.8,2.44 -7.84,4 -12.12,4.7 -4.19,0.76 -8.49,0.66 -12.9,-0.28 -4.41,-0.94 -8.57,-2.77 -12.47,-5.47l-88.19 -61.09c-3.8,-2.63 -6.92,-5.85 -9.36,-9.65 -2.43,-3.8 -4.04,-7.79 -4.8,-11.98 -0.64,-3.54 -0.72,-6.98 -0.24,-10.31 -3.25,1.83 -6.57,2.98 -9.98,3.43 -4.26,0.86 -8.58,0.85 -12.98,-0.01 -4.4,-0.87 -8.6,-2.68 -12.59,-5.45 -3.9,-2.7 -7.03,-5.96 -9.38,-9.78 -2.36,-3.81 -3.89,-7.86 -4.58,-12.15 -0.76,-4.19 -0.65,-8.5 0.33,-12.96 0.98,-4.46 2.85,-8.69 5.62,-12.69 2.7,-3.9 5.97,-7.09 9.8,-9.57 3.83,-2.48 7.87,-4.15 12.13,-5.01 4.25,-0.86 8.58,-0.85 12.98,0.02 4.39,0.87 8.55,2.65 12.44,5.35 4,2.77 7.17,6.06 9.53,9.87 2.35,3.81 3.88,7.86 4.57,12.14 0.65,3.54 0.68,7.15 0.1,10.84zm-39.43 -8.31c-1.12,1.62 -1.48,3.31 -1.08,5.06 0.4,1.76 1.41,3.2 3.03,4.31 1.62,1.12 3.3,1.54 5.03,1.27 1.74,-0.28 3.17,-1.22 4.29,-2.84 1.12,-1.62 1.52,-3.31 1.2,-5.08 -0.32,-1.77 -1.29,-3.22 -2.91,-4.34 -1.61,-1.12 -3.33,-1.53 -5.15,-1.24 -1.82,0.29 -3.29,1.24 -4.41,2.85zm58.19 33.98c-1.14,-0.79 -2.43,-1.06 -3.88,-0.79 -1.45,0.26 -2.57,0.96 -3.36,2.11 -0.93,1.33 -1.22,2.68 -0.89,4.04 0.33,1.35 1.07,2.42 2.2,3.21l87.9 60.89c1.24,0.86 2.52,1.19 3.86,0.99 1.33,-0.2 2.46,-0.97 3.39,-2.3 0.79,-1.14 1.08,-2.42 0.87,-3.83 -0.22,-1.42 -0.94,-2.56 -2.18,-3.41l-87.9 -60.89z"/>
   <path class="fil0" d="M5667.41 7280c-10.5,-5.64 -19.35,-13.02 -26.54,-22.13 -7.19,-9.11 -12.37,-19.05 -15.52,-29.81 -3.21,-10.65 -4.35,-21.74 -3.42,-33.26 0.93,-11.52 4.24,-22.58 9.93,-33.19 5.7,-10.61 13.09,-19.48 22.18,-26.62 9.08,-7.14 18.98,-12.37 29.69,-15.68 10.65,-3.21 21.77,-4.34 33.34,-3.37 11.56,0.95 22.6,4.25 33.1,9.89 10.61,5.7 19.5,13.1 26.7,22.22 7.19,9.11 12.39,19 15.6,29.65 3.26,10.81 4.39,21.97 3.42,33.46 -0.99,11.49 -4.32,22.54 -10.02,33.15 -5.69,10.6 -13.06,19.49 -22.09,26.66 -9.04,7.16 -18.94,12.33 -29.69,15.48 -10.71,3.32 -21.85,4.49 -33.42,3.54 -11.57,-0.96 -22.65,-4.28 -33.26,-9.98zm13.46 -25.08c7.14,3.83 14.61,6.07 22.41,6.71 7.8,0.64 15.3,-0.13 22.51,-2.3 7.21,-2.17 13.89,-5.69 20.04,-10.52 6.15,-4.85 11.14,-10.83 14.97,-17.97 3.83,-7.14 6.07,-14.61 6.71,-22.41 0.64,-7.8 -0.12,-15.3 -2.3,-22.51 -2.12,-7.31 -5.61,-14.01 -10.48,-20.1 -4.87,-6.1 -10.88,-11.06 -18.02,-14.9 -7.13,-3.83 -14.59,-6.09 -22.37,-6.78 -7.77,-0.69 -15.29,0.1 -22.55,2.37 -7.31,2.12 -14.01,5.61 -20.11,10.48 -6.1,4.87 -11.06,10.88 -14.89,18.02 -3.83,7.13 -6.09,14.59 -6.79,22.36 -0.69,7.77 0.1,15.29 2.37,22.55 2.17,7.21 5.68,13.89 10.52,20.04 4.84,6.15 10.84,11.13 17.97,14.97zm5.09 -9.48c-5.91,-3.18 -10.92,-7.31 -15.02,-12.4 -4.1,-5.09 -7.12,-10.59 -9.07,-16.49 -1.8,-5.96 -2.46,-12.13 -1.99,-18.51 0.47,-6.38 2.29,-12.52 5.47,-18.44 3.17,-5.91 7.32,-10.88 12.43,-14.9 5.12,-4.02 10.62,-6.87 16.52,-8.57 6.06,-1.74 12.31,-2.26 18.76,-1.55 6.45,0.7 12.63,2.64 18.55,5.82 6.02,3.23 11.1,7.34 15.25,12.33 4.15,4.99 7.13,10.46 8.92,16.41 1.95,5.91 2.67,12.1 2.14,18.59 -0.53,6.48 -2.38,12.68 -5.56,18.59 -3.17,5.92 -7.29,10.83 -12.35,14.74 -5.06,3.92 -10.62,6.75 -16.68,8.49 -5.9,1.69 -12.1,2.24 -18.61,1.63 -6.5,-0.6 -12.76,-2.52 -18.78,-5.75zm13.63 -25.39c5.1,2.74 10.31,3.43 15.63,2.09 2.46,-0.65 4.78,-1.74 6.97,-3.25 2.19,-1.51 3.94,-3.49 5.26,-5.94 1.31,-2.45 2,-5.01 2.05,-7.67 0.05,-2.67 -0.33,-5.2 -1.14,-7.61 -1.81,-5.18 -5.27,-9.13 -10.37,-11.87 -5,-2.68 -10.16,-3.35 -15.48,-2 -2.55,0.6 -4.87,1.69 -6.96,3.26 -2.09,1.57 -3.8,3.57 -5.11,6.02 -1.31,2.45 -2.05,4.98 -2.2,7.59 -0.15,2.61 0.22,5.15 1.13,7.6 1.81,5.18 5.22,9.11 10.22,11.79z"/>
   <path class="fil0" d="M5811.02 7119.94l-115.09 -40.6c-11.79,-4.16 -15.58,-12.19 -11.38,-24.08 1.93,-5.46 4.85,-9.49 8.77,-12.09 3.93,-2.6 9.04,-4.33 15.35,-5.17 -2.07,-6.99 -3.28,-13.49 -3.61,-19.5 -0.34,-6 -0.19,-11.47 0.45,-16.41 0.6,-4.82 1.46,-9.09 2.59,-12.8 1.12,-3.72 2.13,-6.83 3.02,-9.33 4,-11.35 9.77,-20.73 17.29,-28.14 7.52,-7.41 16.09,-12.91 25.7,-16.52 9.58,-3.49 19.96,-5.11 31.17,-4.84 11.19,0.27 22.41,2.38 33.65,6.35l50.75 17.9c4.37,1.54 8.16,3.83 11.38,6.87 3.22,3.04 5.75,6.48 7.59,10.32 1.94,3.88 3.08,8.05 3.4,12.52 0.33,4.47 -0.28,8.89 -1.82,13.26 -1.57,4.47 -3.89,8.35 -6.96,11.63 -3.06,3.28 -6.58,5.87 -10.56,7.78 -3.88,1.94 -8.03,3.09 -12.44,3.43 -4.42,0.34 -8.81,-0.26 -13.17,-1.8l-50.75 -17.9c-5.46,-1.93 -10.64,-1.85 -15.54,0.22 -2.43,0.98 -4.56,2.41 -6.38,4.28 -1.83,1.87 -3.2,4.11 -4.13,6.74 -0.93,2.62 -1.26,5.23 -1.01,7.84 0.25,2.6 0.88,5.06 1.9,7.39 2.33,4.87 6.08,8.34 11.24,10.41l51.24 18.08c4.48,1.58 8.38,3.91 11.71,6.98 3.33,3.08 5.92,6.54 7.75,10.38 1.91,3.98 2.99,8.23 3.24,12.74 0.25,4.51 -0.39,8.94 -1.93,13.31 -1.58,4.48 -3.88,8.39 -6.91,11.74 -3.02,3.35 -6.51,5.93 -10.45,7.72 -3.87,1.95 -8.07,3.04 -12.57,3.3 -4.51,0.25 -9,-0.41 -13.47,-1.99zm-90.76 -62.58l100.02 35.29c1.31,0.46 2.61,0.43 3.91,-0.09 1.29,-0.53 2.2,-1.56 2.74,-3.09 0.46,-1.31 0.37,-2.63 -0.26,-3.96 -0.64,-1.33 -1.61,-2.22 -2.93,-2.69l-41.74 -14.72c-6.66,-2.35 -12.81,-6.05 -18.45,-11.1 -5.64,-5.06 -10.25,-10.86 -13.83,-17.4 -3.51,-6.4 -5.77,-13.3 -6.78,-20.7 -1.01,-7.41 -0.26,-14.67 2.24,-21.76 2.39,-6.76 5.69,-12.2 9.89,-16.3 4.2,-4.09 9.12,-7 14.75,-8.69 5.52,-1.74 11.59,-2.33 18.2,-1.77 6.61,0.55 13.36,2.04 20.23,4.47l46.99 16.57c1.09,0.38 2.43,0.43 4.01,0.13 1.58,-0.31 2.67,-1.33 3.29,-3.07 0.62,-1.75 0.44,-3.22 -0.55,-4.43 -0.99,-1.21 -2.08,-2.02 -3.28,-2.45l-47.15 -16.63c-8.19,-2.89 -16.19,-4.54 -24.02,-4.97 -7.83,-0.43 -15.07,0.45 -21.74,2.64 -6.56,2.23 -12.39,5.81 -17.51,10.76 -5.12,4.94 -9.08,11.4 -11.89,19.37 -2.58,7.31 -3.72,14.45 -3.42,21.43 0.3,6.98 1.44,13.39 3.43,19.25 1.98,5.85 4.55,10.93 7.7,15.23 3.14,4.3 6.27,7.43 9.39,9.39l-23.57 -8.32c-3.27,-1.15 -6.2,-1.36 -8.8,-0.61 -2.59,0.74 -4.18,1.93 -4.76,3.56 -0.54,1.53 -0.38,2.57 0.47,3.11 0.85,0.55 1.98,1.07 3.41,1.57z"/>
   <path class="fil1" d="M5803.9 6949c-39.85,0 -72.17,32.31 -72.17,72.16 0,39.85 32.31,72.17 72.17,72.17 39.85,0 72.17,-32.31 72.17,-72.17 0,-39.85 -32.31,-72.16 -72.17,-72.16z"/>
   <polygon class="fil2" points="3202.48,7093.33 3346.81,7093.33 3346.81,6949 3202.48,6949 "/>
   <polygon class="fil2" points="5731.74,7093.33 5876.07,7093.33 5876.07,6949 5731.74,6949 "/>
  </g>
 </g>
</svg>
